<svg id="Gruppe_1" data-name="Gruppe 1" xmlns="http://www.w3.org/2000/svg" width="444" height="250" viewBox="0 0 444 250">
  <defs>
    <style>
      .cls-1 {
        fill-rule: evenodd;
      }
    </style>
  </defs>
  <path id="HG" class="cls-1" d="M137.213,169.062l26.541,0.335,0.438-34.743,29,0.365-0.438,34.743,26.658,0.336L220.5,84.207l-26.658-.336-0.379,30.056-29-.366,0.379-30.056L138.3,83.171Zm161.161-29.085-0.1,8.086a45.851,45.851,0,0,1-9.312,4.277,27.8,27.8,0,0,1-8.512,1.182q-9.375-.118-14.543-6.16t-4.992-19.987q0.165-13.123,5.426-19.122t13.992-5.889a16.741,16.741,0,0,1,9.6,2.7,13.857,13.857,0,0,1,5.267,7.508l25.661-4.247A35.522,35.522,0,0,0,314.036,94.5a27.662,27.662,0,0,0-11.617-8.145q-7.029-2.666-21.265-2.846-14.764-.186-23.546,3.864a37.568,37.568,0,0,0-17.19,15.575q-5.931,10.328-6.109,24.388a51.046,51.046,0,0,0,5,23.737,35.679,35.679,0,0,0,14.745,15.714q9.572,5.337,24.864,5.529a70.69,70.69,0,0,0,21.509-2.63q9.089-2.786,20.967-10.664l0.461-36.618-41.012-.517-0.226,17.87Z"/>
  <path id="Rektangel_1" data-name="Rektangel 1" class="cls-1" d="M32.517,123.8L79.639,76.681a2.18,2.18,0,0,1,3.083,3.083L35.6,126.885A2.18,2.18,0,0,1,32.517,123.8Z"/>
  <path id="Rektangel_1-2" data-name="Rektangel 1" class="cls-1" d="M79.639,174.007L32.517,126.885A2.18,2.18,0,0,1,35.6,123.8l47.122,47.122A2.18,2.18,0,1,1,79.639,174.007Z"/>
  <path id="Rektangel_1-3" data-name="Rektangel 1" class="cls-1" d="M411.313,129.1l-46.665,47.316a2.138,2.138,0,0,1-3.052,0,2.211,2.211,0,0,1,0-3.1L408.26,126a2.138,2.138,0,0,1,3.053,0A2.211,2.211,0,0,1,411.313,129.1Z"/>
  <path id="Rektangel_1-4" data-name="Rektangel 1" class="cls-1" d="M364.648,78.683L411.313,126a2.211,2.211,0,0,1,0,3.1,2.139,2.139,0,0,1-3.053,0L361.6,81.779a2.211,2.211,0,0,1,0-3.1A2.137,2.137,0,0,1,364.648,78.683Z"/>
</svg>
